Coordinates
version=1
nRows=8
nColumns=63
inDegrees=yes

Units are S.I. units (second, meters, Newtons, ...)
If the header above contains a line with 'inDegrees', this indicates whether rotational values are in degrees (yes) or radians (no).

endheader
time	pelvis_tilt	pelvis_list	pelvis_rotation	pelvis_tx	pelvis_ty	pelvis_tz	hip_flexion_r	hip_adduction_r	hip_rotation_r	knee_angle_r	knee_angle_r_beta	ankle_angle_r	subtalar_angle_r	mtp_angle_r	hip_flexion_l	hip_adduction_l	hip_rotation_l	knee_angle_l	knee_angle_l_beta	ankle_angle_l	subtalar_angle_l	mtp_angle_l	L5_S1_Flex_Ext	L5_S1_Lat_Bending	L5_S1_axial_rotation	L4_L5_Flex_Ext	L4_L5_Lat_Bending	L4_L5_axial_rotation	L3_L4_Flex_Ext	L3_L4_Lat_Bending	L3_L4_axial_rotation	L2_L3_Flex_Ext	L2_L3_Lat_Bending	L2_L3_axial_rotation	L1_L2_Flex_Ext	L1_L2_Lat_Bending	L1_L2_axial_rotation	L1_T12_Flex_Ext	L1_T12_Lat_Bending	L1_T12_axial_rotation	Abs_r3	Abs_r2	Abs_r1	Abs_t1	Abs_t2	neck_flexion	neck_bending	neck_rotation	arm_flex_r	arm_add_r	arm_rot_r	elbow_flex_r	pro_sup_r	wrist_flex_r	wrist_dev_r	arm_flex_l	arm_add_l	arm_rot_l	elbow_flex_l	pro_sup_l	wrist_flex_l	wrist_dev_l
      1.62711864	     -5.99561015	      5.71315421	     60.11792409	      0.30129286	      0.88366193	      0.58098541	     16.51675095	      0.40221492	     37.19411934	     32.20466016	      0.56207735	   -134.47234552	    -18.99914523	      0.00000000	      2.11234196	     16.35774403	     39.67064961	     20.01515581	      0.34933037	    -59.89119421	     19.92787624	      0.00000000	      0.20094761	     -2.23499257	      1.76934470	      0.37317980	     -2.97254012	      1.87992874	      0.33013682	     -5.43416094	      1.87992874	      0.22966302	     -5.43416094	      1.54817661	      0.18659995	     -4.55759685	      1.43759257	      0.11482146	     -3.46200349	      1.32700852	      1.43534865	    -25.28268297	      9.84056442	      0.00000000	      0.00000000	     25.89207147	     21.11111319	    -44.09762532	     51.89214405	    -42.57970521	   -109.93175889	    142.17329392	     89.15231073	     11.99432513	    -22.98978871	     11.64082643	    -25.32784920	    136.06875930	      3.88700620	      3.50773095	     -4.07709075	     -3.29073830
      1.64406780	     -5.15570500	      4.50115398	     61.43193242	      0.30010411	      0.89285102	      0.58095729	     14.13098908	      0.47383304	     38.23888872	     25.04173295	      0.43706069	   -141.99958095	    -18.56044742	      0.00000000	      2.15761941	     13.95702166	     39.73768837	     17.63397827	      0.30777098	    -59.88045457	     19.92734210	      0.00000000	      0.25314507	     -2.15711092	      1.95569692	      0.47011571	     -2.86895752	      2.07792798	      0.41589204	     -5.24479948	      2.07792798	      0.28931950	     -5.24479948	      1.71123481	      0.23507051	     -4.39878058	      1.58900375	      0.14464709	     -3.34136481	      1.46677269	      1.80818992	    -24.40167011	     10.87699957	      0.00000000	      0.00000000	     26.07923663	     21.83457269	    -44.34365844	     57.21322199	    -42.48487947	   -103.31849637	    141.55955426	     88.76719768	     28.48511262	    -16.92364397	     11.62174804	    -25.26943857	    134.56497807	      3.88148989	      3.26897485	     -4.93794025	     -3.87471780
      1.66101695	     -4.04298814	      3.67413206	     67.77405320	      0.29346974	      0.90425449	      0.57360859	      6.05954138	     -2.96396424	     39.11648079	      6.93605634	      0.12105702	   -156.58085039	    -15.62886907	      0.00000000	      2.32183119	     11.75259662	     39.76167955	     17.11776682	      0.29876139	    -59.87418515	     19.92283129	      0.00000000	      0.19496392	     -2.08476939	      1.28406446	      0.36206749	     -2.77274329	      1.36431849	      0.32030622	     -5.06890830	      1.36431849	      0.22282426	     -5.06890830	      1.12355641	      0.18104349	     -4.25126174	      1.04330238	      0.11140238	     -3.22930779	      0.96304835	      1.39260776	    -23.58332831	      7.14158133	      0.00000000	      0.00000000	     25.73881640	     23.22023544	    -44.44349726	     60.04144543	    -41.76280282	    -93.48758969	    140.35079354	     86.99379629	     29.59925938	     -8.38171389	     11.04802676	    -25.35895812	    132.05697470	      4.11596578	      3.26870145	     -5.59118903	     -4.67372939
      1.67796610	     -6.63184282	      2.81370793	     71.48818718	      0.29005581	      0.91104286	      0.57529739	      5.34859166	     -6.69043984	     39.44990284	      0.68946298	      0.01203340	   -164.69386750	    -17.89605053	      0.00000000	      3.55545535	     12.45353556	     39.77233496	     13.55559405	      0.23658975	    -59.83246934	     19.91658083	      0.00000000	      0.22567642	     -2.43501001	      1.08120090	      0.41910368	     -3.23856331	      1.14877595	      0.37076379	     -5.92048333	      1.14877595	      0.25792558	     -5.92048333	      0.94605078	      0.20956312	     -4.96547240	      0.87847573	      0.12895151	     -3.77183050	      0.81090067	      1.61198409	    -27.54532019	      6.01331503	      0.00000000	      0.00000000	     26.84109167	     23.88513911	    -44.46645854	     62.66889440	    -40.73049870	    -80.15269609	    139.57517812	     72.87938884	     15.75443701	      7.73510145	     12.12362922	    -27.08198544	    131.22561398	      4.49246561	      3.22533568	     -5.40572458	     -5.82114226
      1.69491525	     -9.10433444	      1.26685809	     75.43152062	      0.28740856	      0.91621466	      0.57973673	      7.36171685	     -8.53012812	     39.66378803	      0.35785666	      0.00624578	   -169.12554094	    -19.19128234	      0.00000000	      4.74936392	     12.60183769	     39.77216392	      8.74794030	      0.15268036	    -59.72518864	     19.90755628	      0.00000000	      0.23585013	     -2.78086652	      0.76979723	      0.43799727	     -3.69855248	      0.81790956	      0.38747817	     -6.76139886	      0.81790956	      0.26955311	     -6.76139886	      0.67357257	      0.21901043	     -5.67074301	      0.62546025	      0.13476476	     -4.30756224	      0.57734792	      1.68465388	    -31.45771828	      4.28138125	      0.00000000	      0.00000000	     27.63584105	     23.91177451	    -44.41728701	     68.02576510	    -40.69069927	    -65.88875356	    138.44531319	     65.67132248	     -5.56076291	     20.07749328	     13.85196201	    -28.99800596	    132.61784347	      4.72275427	      3.08493518	     -4.70768207	     -6.20785286
      1.71186441	    -10.67916320	     -0.76307316	     81.15058907	      0.28218329	      0.91939802	      0.58242765	      8.69188951	     -9.82845387	     39.78482218	      0.25074444	      0.00437632	   -173.63771458	    -19.56641829	      0.00000000	      5.67986689	     12.37305161	     39.76421865	      4.40655933	      0.07690897	    -59.34797095	     19.89578867	      0.00000000	      0.19115151	     -3.00938200	      0.14508153	      0.35498747	     -4.00247806	      0.15414913	      0.31404282	     -7.31701140	      0.15414913	      0.21846706	     -7.31701140	      0.12694634	      0.17750329	     -6.13673178	      0.11787874	      0.10922397	     -4.66153272	      0.10881115	      1.36537614	    -34.04273110	      0.80689995	      0.00000000	      0.00000000	     27.88765477	     23.04622874	    -44.24260525	     75.59001945	    -41.03289009	    -52.11026954	    132.05187840	     69.03463941	    -13.52083523	     18.97425117	     15.64629783	    -30.31430347	    135.52537248	      4.72858705	      3.15799302	     -3.62822637	     -5.89767859
      1.72881356	    -10.70207282	     -2.98893874	     83.99705215	      0.27889363	      0.91699889	      0.58671390	     10.71720218	     -9.56572622	     39.86017066	      0.22707463	      0.00396320	   -180.12544695	    -19.74041686	      0.00000000	      8.42714545	     12.19173551	     39.84064581	      7.16637015	      0.12507675	    -40.62644383	     19.87334868	      0.00000000	      0.17854732	     -2.98277515	      0.07916480	      0.33158023	     -3.96709095	      0.08411259	      0.29333539	     -7.25231951	      0.08411259	      0.20406173	     -7.25231951	      0.06926920	      0.16579904	     -6.08247509	      0.06432140	      0.10202194	     -4.62031871	      0.05937360	      1.27534565	    -33.74174909	      0.44029084	      0.00000000	      0.00000000	     28.01593910	     19.97530196	    -43.70520088	     85.78611908	    -41.35232233	    -38.39520274	    121.69415044	     76.47983591	    -12.17049379	     17.12310389	     18.02348895	    -30.04046910	    139.23198363	      4.71979945	      3.48948655	     -2.86970998	     -4.99558486
      1.74576271	     -9.38832983	     -5.02065262	     89.70133769	      0.27149432	      0.91101110	      0.58808039	     10.95426188	     -8.55590767	     39.89481530	      0.21446594	      0.00374314	   -190.61582937	    -19.82020633	      0.00000000	     10.64910552	     11.62945202	     39.86133485	     10.76582863	      0.18789916	    -22.20786428	     19.84350202	      0.00000000	      0.08851734	     -2.76394769	     -0.42453005	      0.16438555	     -3.67605043	     -0.45106318	      0.14542514	     -6.72026242	     -0.45106318	      0.10116647	     -6.72026242	     -0.37146380	      0.08219720	     -5.63624214	     -0.34493067	      0.05057881	     -4.28135498	     -0.31839754	      0.63227050	    -31.26632910	     -2.36110879	      0.00000000	      0.00000000	     27.89911339	     15.88536420	    -41.67836108	     96.10263828	    -41.52223609	    -23.94938986	    107.72730182	     82.17272627	     -8.02575771	     11.96036411	     19.87656354	    -28.81650078	    143.05477819	      4.50639818	      4.01290012	     -1.90189660	     -4.18441254
